<svg width="33" height="33" viewBox="0 0 33 33" fill="none" xmlns="http://www.w3.org/2000/svg">
<path d="M32.9105 16.5003C32.9105 25.565 25.5622 32.9135 16.4976 32.9135C7.43288 32.9135 0.084549 25.565 0.084549 16.5003C0.084549 7.43567 7.43288 0.0873413 16.4976 0.0873413C25.5621 0.0873413 32.9105 7.43567 32.9105 16.5003" fill="#0DB7B7"/>
<g opacity="0.8">
<path d="M16.4451 8.88461L16.3438 9.22919V19.2279L16.4451 19.3291L21.0864 16.5857L16.4451 8.88461Z" fill="white"/>
<path d="M16.4452 8.88461L11.8038 16.5857L16.4452 19.3292V14.4761V8.88461Z" fill="white"/>
<path d="M16.4451 20.8392L16.388 20.9088V24.4706L16.4451 24.6375L21.0892 18.0971L16.4451 20.8392Z" fill="white"/>
<path d="M16.4452 24.6375V20.8392L11.8038 18.0971L16.4452 24.6375Z" fill="white"/>
<path d="M16.4451 19.3291L21.0863 16.5857L16.4451 14.4761V19.3291Z" fill="white"/>
<path d="M11.8038 16.5857L16.4451 19.3291V14.4761L11.8038 16.5857Z" fill="white"/>
</g>
</svg>
