<svg width="48" height="46" viewBox="0 0 48 46" fill="none" xmlns="http://www.w3.org/2000/svg">
<rect x="0.5" y="0.5" width="47" height="45" rx="11.5" fill="white" stroke="#CFCFCF"/>
<path d="M24.5192 14.6675C21.3471 14.6675 18.7692 17.1333 18.7692 20.1675V22.8167C18.7692 23.3758 18.52 24.2283 18.2229 24.705L17.1208 26.4558C16.4404 27.5375 16.91 28.7383 18.1558 29.1417C22.2862 30.4617 26.7425 30.4617 30.8729 29.1417C32.0325 28.775 32.5404 27.4642 31.9079 26.4558L30.8058 24.705C30.5183 24.2283 30.2692 23.3758 30.2692 22.8167V20.1675C30.2692 17.1425 27.6817 14.6675 24.5192 14.6675Z" stroke="#292D32" stroke-width="1.5" stroke-miterlimit="10" stroke-linecap="round"/>
<path d="M26.2921 14.9333C25.995 14.8508 25.6883 14.7867 25.3721 14.75C24.4521 14.64 23.5704 14.7042 22.7462 14.9333C23.0242 14.255 23.7142 13.7783 24.5192 13.7783C25.3242 13.7783 26.0142 14.255 26.2921 14.9333Z" stroke="#292D32" stroke-width="1.5" stroke-miterlimit="10" stroke-linecap="round" stroke-linejoin="round"/>
<path d="M27.3942 29.4717C27.3942 30.9842 26.1004 32.2217 24.5192 32.2217C23.7333 32.2217 23.005 31.91 22.4875 31.415C21.97 30.92 21.6442 30.2233 21.6442 29.4717" stroke="#292D32" stroke-width="1.5" stroke-miterlimit="10"/>
</svg>
